<svg width="20" height="20" viewBox="0 0 20 20" fill="none" xmlns="http://www.w3.org/2000/svg">
<path d="M8.11717 15.9866H0.883057" stroke="black" stroke-width="1.5" stroke-linecap="round" stroke-linejoin="round"/>
<path fill-rule="evenodd" clip-rule="evenodd" d="M19.1179 15.9866C19.1179 17.5772 17.8285 18.8666 16.2379 18.8666C14.6473 18.8666 13.3579 17.5772 13.3579 15.9866C13.3579 14.3948 14.6473 13.1066 16.2379 13.1066C17.8285 13.1066 19.1179 14.3948 19.1179 15.9866Z" stroke="black" stroke-width="1.5" stroke-linecap="round" stroke-linejoin="round"/>
<path d="M11.8827 4.26206H19.118" stroke="black" stroke-width="1.5" stroke-linecap="round" stroke-linejoin="round"/>
<path fill-rule="evenodd" clip-rule="evenodd" d="M0.882599 4.26208C0.882599 5.85384 2.17201 7.14208 3.7626 7.14208C5.35319 7.14208 6.6426 5.85384 6.6426 4.26208C6.6426 2.67149 5.35319 1.38208 3.7626 1.38208C2.17201 1.38208 0.882599 2.67149 0.882599 4.26208Z" stroke="black" stroke-width="1.5" stroke-linecap="round" stroke-linejoin="round"/>
</svg>
