<svg width="27" height="28" viewBox="0 0 27 28" fill="none" xmlns="http://www.w3.org/2000/svg">
<path d="M19.638 8.39799C19.6742 10.1911 18.9969 11.9252 17.7549 13.2191C16.513 14.5129 14.8081 15.2607 13.015 15.298C11.2219 15.2607 9.51702 14.5129 8.27509 13.2191C7.03315 11.9252 6.35583 10.1911 6.392 8.39799C6.35583 6.60488 7.03315 4.87079 8.27509 3.57691C9.51702 2.28304 11.2219 1.53527 13.015 1.49799C14.8081 1.53527 16.513 2.28304 17.7549 3.57691C18.9969 4.87079 19.6742 6.60488 19.638 8.39799Z" stroke="black"/>
<path d="M11.062 15.25H14.962C16.3491 15.2493 17.7228 15.5219 19.0045 16.0522C20.2863 16.5824 21.451 17.3599 22.4323 18.3404C23.4135 19.3208 24.1921 20.4849 24.7234 21.7662C25.2547 23.0475 25.5285 24.4209 25.529 25.808C25.529 26.1241 25.4034 26.4273 25.1799 26.6509C24.9563 26.8744 24.6531 27 24.337 27H1.692C1.37586 27 1.07267 26.8744 0.849129 26.6509C0.625585 26.4273 0.5 26.1241 0.5 25.808C0.501061 23.0075 1.61431 20.322 3.59495 18.3421C5.5756 16.3622 8.26148 15.25 11.062 15.25V15.25Z" stroke="black"/>
</svg>
