<svg xmlns="http://www.w3.org/2000/svg" width="17.958" height="19.499" viewBox="0 0 17.958 19.499">
  <g id="delete" transform="translate(-3.25 -2.251)">
    <path id="Path_18" data-name="Path 18" d="M19.325,9.468s-.543,6.735-.858,9.572a2.238,2.238,0,0,1-2.358,2.174c-2.609.047-5.221.05-7.829-.005a2.214,2.214,0,0,1-2.289-2.162c-.317-2.862-.857-9.579-.857-9.579" fill="none" stroke="#000" stroke-linecap="round" stroke-linejoin="round" stroke-width="1"/>
    <path id="Path_19" data-name="Path 19" d="M20.708,6.24H3.75" fill="none" stroke="#000" stroke-linecap="round" stroke-linejoin="round" stroke-width="1"/>
    <path id="Path_20" data-name="Path 20" d="M17.441,6.24a1.648,1.648,0,0,1-1.615-1.324L15.583,3.7a1.28,1.28,0,0,0-1.237-.949H10.113A1.28,1.28,0,0,0,8.876,3.7L8.633,4.916A1.648,1.648,0,0,1,7.018,6.24" fill="none" stroke="#000" stroke-linecap="round" stroke-linejoin="round" stroke-width="1"/>
  </g>
</svg>
